<svg width="412" height="427" viewBox="0 0 412 427" fill="none" xmlns="http://www.w3.org/2000/svg">
<path d="M338.793 230.196C412.34 271.871 412.732 339.431 339.647 381.097C266.562 422.764 147.745 422.73 74.1983 381.097C0.651842 339.465 0.267548 271.871 73.3443 230.204C146.421 188.538 265.255 188.529 338.793 230.196Z" fill="#F5F5F5"/>
<path d="M267.723 42.0424L271.489 39.8562L271.267 117.681L267.51 119.876L267.723 42.0424Z" fill="#F0F0F0"/>
<path d="M267.51 119.876L271.267 117.681L379.845 180.365L376.079 182.551L267.51 119.876Z" fill="#F5F5F5"/>
<path d="M263.411 34.5699L380.639 102.249L380.391 190.032L263.163 122.344L263.411 34.5699ZM376.079 182.551L376.301 104.726L267.723 42.0424L267.51 119.867L376.079 182.551Z" fill="#E0E0E0"/>
<path d="M263.411 34.5699L267.177 32.3752L384.405 100.063L380.639 102.249L263.411 34.5699Z" fill="#F5F5F5"/>
<path d="M380.639 102.249L384.405 100.063L384.158 187.846L380.391 190.032L380.639 102.249Z" fill="#F0F0F0"/>
<path d="M319.843 72.1374L319.621 149.962L323.951 152.465L324.173 74.6311L319.843 72.1374Z" fill="#E0E0E0"/>
<path d="M324.173 74.6311L323.951 152.465L327.717 150.278L327.93 76.8002L324.173 74.6311Z" fill="#F0F0F0"/>
<path opacity="0.2" d="M324.173 78.1325L324.181 74.6311L319.851 72.1374L319.834 75.6302L324.173 78.1325Z" fill="black"/>
<path opacity="0.2" d="M324.164 78.1325L327.204 76.3818L324.173 74.6311L324.164 78.1325Z" fill="black"/>
<path d="M85.5309 279.258C83.1141 280.659 83.097 282.922 85.5309 284.314L94.1819 289.344C95.5351 290.032 97.0319 290.391 98.5502 290.391C100.068 290.391 101.565 290.032 102.918 289.344L207.217 228.752C209.634 227.36 209.66 225.089 207.217 223.688L198.558 218.658C197.205 217.97 195.708 217.611 194.19 217.611C192.671 217.611 191.175 217.97 189.821 218.658L85.5309 279.258Z" fill="#E6E6E6"/>
<path d="M100.168 341.6L177.259 386.392C178.334 387.017 179.555 387.346 180.799 387.346C182.042 387.346 183.264 387.017 184.339 386.392L324.352 305.587C324.62 305.431 324.842 305.208 324.996 304.94C325.151 304.672 325.232 304.368 325.232 304.058C325.232 303.749 325.151 303.445 324.996 303.176C324.842 302.908 324.62 302.685 324.352 302.529L248.346 258.361C247.275 257.745 246.062 257.422 244.828 257.422C243.593 257.422 242.38 257.745 241.309 258.361L100.186 338.551C99.919 338.706 99.6974 338.927 99.5429 339.194C99.3883 339.46 99.3061 339.763 99.3043 340.071C99.3026 340.379 99.3814 340.682 99.533 340.95C99.6846 341.219 99.9036 341.443 100.168 341.6Z" fill="#E6E6E6"/>
<path d="M67.1699 74.6652L67.2297 93.4618L69.5013 94.7855L69.4415 73.3586L67.1699 74.6652Z" fill="#F0F0F0"/>
<path d="M42.6345 107.664L42.643 110.294L69.5013 94.7855L67.2297 93.4618L42.6345 107.664Z" fill="#F5F5F5"/>
<path d="M72.1829 68.6104L39.8163 87.2959L39.8932 115.051L72.2683 96.3654L72.1829 68.6104ZM42.6345 110.294V107.664L42.5747 88.8758L67.1699 74.6738L69.4416 73.3672L69.5013 94.794L42.6345 110.294Z" fill="#E0E0E0"/>
<path d="M72.1829 68.6104L69.9112 67.2867L37.5361 85.9722L39.8163 87.2959L72.1829 68.6104Z" fill="#F5F5F5"/>
<path d="M37.5361 85.9722L37.613 113.727L39.8932 115.051L39.8163 87.2959L37.5361 85.9722Z" fill="#F0F0F0"/>
<path d="M67.1699 113.838L67.2297 132.635L69.5013 133.958L69.4415 112.523L67.1699 113.838Z" fill="#F0F0F0"/>
<path d="M42.6345 146.837L42.643 149.467L69.5013 133.958L67.2297 132.635L42.6345 146.837Z" fill="#F5F5F5"/>
<path d="M72.1829 107.775L39.8163 126.469L39.8932 154.224L72.2683 135.53L72.1829 107.775ZM42.6345 149.45V146.811L42.5747 128.023L67.1699 113.83L69.4416 112.515L69.5013 133.95L42.6345 149.45Z" fill="#E0E0E0"/>
<path d="M72.1829 107.775L69.9113 106.451L37.5361 125.145L39.8163 126.469L72.1829 107.775Z" fill="#F5F5F5"/>
<path d="M37.5361 125.145L37.613 152.892L39.8932 154.224L39.8163 126.469L37.5361 125.145Z" fill="#F0F0F0"/>
<path d="M59.3558 81.8047L66.0683 87.0824L66.0768 92.2405L43.7703 105.119L43.7532 99.9607L48.0062 91.5232L51.8235 94.4866L50.4742 98.6797L52.4384 94.9563L59.3558 81.8047Z" fill="#E0E0E0"/>
<path d="M52.0285 84.4008C53.0789 83.7945 53.9329 84.2813 53.9415 85.4939C53.9122 86.1585 53.725 86.8065 53.3953 87.3843C53.0656 87.962 52.6029 88.4528 52.0456 88.816C50.9952 89.4223 50.1412 88.9356 50.1326 87.7314C50.1605 87.0654 50.3471 86.4157 50.6769 85.8363C51.0066 85.257 51.47 84.7648 52.0285 84.4008Z" fill="#E0E0E0"/>
<path d="M59.3558 120.978L66.0683 126.255L66.0768 131.414L43.7703 144.292L43.7532 139.134L48.0062 130.688L51.8235 133.651L50.4742 137.844L52.4384 134.121L59.3558 120.978Z" fill="#E0E0E0"/>
<path d="M52.0285 123.574C53.0789 122.967 53.9329 123.454 53.9415 124.658C53.9069 125.317 53.7172 125.958 53.3877 126.53C53.0582 127.101 52.5983 127.586 52.0456 127.946C50.9952 128.553 50.1412 128.066 50.1326 126.853C50.1685 126.196 50.3588 125.556 50.6882 124.987C51.0177 124.417 51.4769 123.933 52.0285 123.574Z" fill="#E0E0E0"/>
<path d="M332.132 238.573L332.123 241.486L284.18 213.799L284.188 210.887L332.132 238.573Z" fill="#467445"/>
<path d="M315.052 233.347L315.043 236.259L284.163 218.428L284.171 215.515L315.052 233.347Z" fill="#467445"/>
<path d="M301.046 192.944C301.549 193.235 301.992 193.617 302.353 194.072C303.873 195.891 304.249 198.342 304.454 200.468C304.744 203.414 305.043 206.361 305.308 209.307C305.417 210.855 305.703 212.385 306.162 213.867C306.654 215.474 307.586 216.912 308.852 218.018C308.998 218.132 309.152 218.235 309.313 218.325C309.754 218.62 310.273 218.777 310.803 218.777C311.334 218.777 311.852 218.62 312.294 218.325C313.14 217.558 313.81 216.617 314.258 215.567C314.814 214.333 315.727 213.295 316.88 212.586C317.468 212.331 318.111 212.226 318.75 212.279C319.389 212.333 320.005 212.544 320.543 212.894C320.769 213.027 320.986 213.175 321.192 213.338C323.677 215.242 325.146 218.983 326.316 222.228C327.486 225.473 328.981 229.239 331.483 231.058C331.648 231.181 331.819 231.295 331.995 231.4C332.752 231.857 333.634 232.064 334.515 231.992C335.397 231.92 336.233 231.573 336.906 230.998C338.281 229.948 339.391 228.436 341.107 227.975C342.018 227.798 342.962 227.93 343.789 228.351V242.527L284.214 208.154L284.282 184.592C285.401 186.524 286.192 188.628 286.622 190.818C287.135 193.653 287.015 196.736 288.928 199.238C289.393 199.847 289.973 200.358 290.636 200.741C291.354 201.196 292.216 201.366 293.053 201.219C294.231 200.912 294.974 199.81 295.461 198.512C296.119 196.804 296.418 194.669 297.46 193.388C297.904 192.895 298.511 192.579 299.17 192.497C299.829 192.415 300.495 192.574 301.046 192.944Z" fill="#467445"/>
<path opacity="0.4" d="M301.046 192.944C301.549 193.235 301.992 193.617 302.353 194.072C303.873 195.891 304.249 198.342 304.454 200.468C304.744 203.414 305.043 206.361 305.308 209.307C305.417 210.855 305.703 212.385 306.162 213.867C306.654 215.474 307.586 216.912 308.852 218.018C308.998 218.132 309.152 218.235 309.313 218.325C309.754 218.62 310.273 218.777 310.803 218.777C311.334 218.777 311.852 218.62 312.294 218.325C313.14 217.558 313.81 216.617 314.258 215.567C314.814 214.333 315.727 213.295 316.88 212.586C317.468 212.331 318.111 212.226 318.75 212.279C319.389 212.333 320.005 212.544 320.543 212.894C320.769 213.027 320.986 213.175 321.192 213.338C323.677 215.242 325.146 218.983 326.316 222.228C327.486 225.473 328.981 229.239 331.483 231.058C331.648 231.181 331.819 231.295 331.995 231.4C332.752 231.857 333.634 232.064 334.515 231.992C335.397 231.92 336.233 231.573 336.906 230.998C338.281 229.948 339.391 228.436 341.107 227.975C342.018 227.798 342.962 227.93 343.789 228.351V242.527L284.214 208.154L284.282 184.592C285.401 186.524 286.192 188.628 286.622 190.818C287.135 193.653 287.015 196.736 288.928 199.238C289.393 199.847 289.973 200.358 290.636 200.741C291.354 201.196 292.216 201.366 293.053 201.219C294.231 200.912 294.974 199.81 295.461 198.512C296.119 196.804 296.418 194.669 297.46 193.388C297.904 192.895 298.511 192.579 299.17 192.497C299.829 192.415 300.495 192.574 301.046 192.944Z" fill="white"/>
<path d="M353.217 118.51L286.05 79.7294C285.796 79.5545 285.504 79.443 285.197 79.4044C284.891 79.3658 284.58 79.4011 284.291 79.5074H284.24L284.137 79.5672L281.421 81.13H281.362H281.319C281.074 81.3253 280.882 81.5779 280.758 81.8654C280.635 82.1529 280.584 82.4664 280.61 82.7782L280.559 100.883C280.606 101.797 280.869 102.687 281.326 103.479C281.783 104.272 282.422 104.945 283.189 105.443L350.356 144.326C350.626 144.522 350.943 144.642 351.275 144.674C351.607 144.705 351.942 144.647 352.244 144.505L355.011 142.908C355.27 142.711 355.475 142.45 355.605 142.151C355.735 141.852 355.786 141.525 355.754 141.2L355.805 123.096C355.763 122.182 355.507 121.291 355.058 120.494C354.608 119.697 353.978 119.018 353.217 118.51Z" fill="#467445"/>
<path opacity="0.3" d="M353.217 118.51L286.05 79.7294C285.796 79.5545 285.504 79.4431 285.197 79.4044C284.891 79.3658 284.58 79.4011 284.291 79.5074H284.24L284.137 79.5672L281.421 81.13C281.718 81.0019 282.044 80.9527 282.365 80.9871C282.687 81.0215 282.994 81.1384 283.258 81.3264L350.425 120.107C351.516 120.816 352.337 121.872 352.756 123.104L355.557 121.507C355.137 120.273 354.313 119.216 353.217 118.51Z" fill="white"/>
<path opacity="0.2" d="M352.756 123.121C352.947 123.62 353.049 124.149 353.055 124.684L353.004 142.797C353.04 143.124 352.988 143.454 352.855 143.754C352.721 144.054 352.51 144.314 352.244 144.505L355.011 142.908C355.27 142.711 355.475 142.45 355.605 142.151C355.735 141.852 355.786 141.525 355.754 141.2L355.805 123.096C355.795 122.564 355.694 122.038 355.506 121.541L352.756 123.121Z" fill="black"/>
<path d="M299.381 97.7061C300.841 100.268 300.961 102.958 299.748 104.12L294.949 101.353L294.616 98.4491C294.604 98.3657 294.575 98.2856 294.531 98.2136C294.486 98.1417 294.428 98.0795 294.36 98.0307C294.223 97.9538 294.112 98.0307 294.095 98.1417L293.394 102.412L292.489 95.5797C292.475 95.4971 292.444 95.4182 292.399 95.3477C292.353 95.2773 292.294 95.2168 292.225 95.1698C292.203 95.1502 292.176 95.1373 292.147 95.1326C292.118 95.1279 292.088 95.1316 292.061 95.1433C292.034 95.1549 292.011 95.1741 291.994 95.1985C291.978 95.2228 291.969 95.2514 291.968 95.2808L291.311 99.9692L290.653 96.4508C290.62 96.2946 290.528 96.157 290.397 96.0665C290.269 95.9981 290.166 96.0665 290.141 96.1433L289.543 98.2185L285.623 95.9554C284.419 93.3934 284.556 90.8314 286.033 89.9774C286.504 89.7651 287.023 89.6809 287.538 89.7334C288.052 89.7859 288.543 89.9732 288.962 90.2763C290.18 91.0354 291.182 92.0939 291.874 93.3507L292.728 94.7855L293.582 94.3072C294.053 94.0974 294.57 94.0145 295.083 94.067C295.595 94.1194 296.085 94.3053 296.503 94.6061C297.711 95.3775 298.701 96.4445 299.381 97.7061ZM294.334 100.268L293.651 104.47C293.651 104.598 293.523 104.641 293.394 104.564C293.323 104.521 293.263 104.462 293.217 104.393C293.171 104.323 293.142 104.245 293.13 104.162L292.276 97.4329L291.669 101.771C291.669 101.908 291.541 101.951 291.405 101.891C291.337 101.847 291.279 101.789 291.235 101.721C291.191 101.654 291.162 101.578 291.148 101.498L290.405 97.5439L290.038 98.8505C290.038 98.9615 289.902 98.9957 289.782 98.9274L286.127 96.818L286.878 98.1246L292.703 108.21L298.561 104.863L299.313 104.436L294.761 101.805C294.69 101.76 294.63 101.7 294.584 101.629C294.538 101.558 294.508 101.479 294.496 101.395L294.334 100.268Z" fill="#467445"/>
<path d="M292.225 95.1783C292.294 95.2253 292.353 95.2859 292.399 95.3563C292.444 95.4267 292.475 95.5056 292.489 95.5882L293.395 102.42L294.095 98.1502C294.095 98.0136 294.223 97.9624 294.36 98.0392C294.428 98.088 294.486 98.1502 294.531 98.2222C294.575 98.2941 294.604 98.3742 294.616 98.4577L294.949 101.361L299.748 104.128L302.473 105.7C302.55 105.75 302.614 105.819 302.66 105.899C302.706 105.979 302.732 106.069 302.737 106.161C302.737 106.323 302.618 106.391 302.464 106.306L299.279 104.47L294.727 101.84C294.656 101.794 294.596 101.734 294.55 101.663C294.504 101.593 294.474 101.513 294.462 101.43L294.334 100.302L293.651 104.504C293.651 104.632 293.523 104.675 293.395 104.598C293.324 104.555 293.263 104.496 293.217 104.427C293.171 104.357 293.142 104.279 293.13 104.197L292.276 97.467L291.669 101.805C291.669 101.834 291.661 101.862 291.645 101.886C291.63 101.91 291.608 101.929 291.583 101.942C291.557 101.954 291.528 101.959 291.5 101.956C291.471 101.953 291.444 101.942 291.422 101.925C291.349 101.884 291.287 101.828 291.24 101.76C291.193 101.692 291.161 101.614 291.148 101.532L290.406 97.5781L290.038 98.8847C290.038 98.9957 289.902 99.0298 289.782 98.9615L286.127 96.8522L282.942 95.0075C282.865 94.96 282.801 94.8949 282.755 94.8176C282.709 94.7404 282.682 94.6532 282.677 94.5634C282.677 94.3926 282.796 94.3243 282.942 94.4012L285.657 95.9725L289.577 98.2356L290.175 96.1604C290.175 96.0494 290.303 96.0152 290.414 96.075C290.483 96.1193 290.543 96.1768 290.59 96.2442C290.637 96.3116 290.67 96.3876 290.687 96.4679L291.345 99.9863L292.002 95.2979C292.005 95.2733 292.014 95.2497 292.028 95.2292C292.042 95.2087 292.061 95.1919 292.082 95.1802C292.104 95.1684 292.128 95.1621 292.153 95.1618C292.178 95.1615 292.202 95.1671 292.225 95.1783Z" fill="white"/>
<path opacity="0.4" d="M299.381 97.7061C300.841 100.268 300.961 102.958 299.748 104.12L294.949 101.353L294.616 98.4491C294.604 98.3657 294.575 98.2856 294.531 98.2136C294.486 98.1417 294.428 98.0795 294.36 98.0307C294.223 97.9538 294.112 98.0307 294.095 98.1417L293.394 102.412L292.489 95.5797C292.475 95.4971 292.444 95.4182 292.399 95.3477C292.353 95.2773 292.294 95.2168 292.225 95.1698C292.203 95.1502 292.176 95.1373 292.147 95.1326C292.118 95.1279 292.088 95.1316 292.061 95.1433C292.034 95.1549 292.011 95.1741 291.994 95.1985C291.978 95.2228 291.969 95.2514 291.968 95.2808L291.311 99.9692L290.653 96.4508C290.62 96.2946 290.528 96.157 290.397 96.0665C290.269 95.9981 290.166 96.0665 290.141 96.1433L289.543 98.2185L285.623 95.9554C284.419 93.3934 284.556 90.8314 286.033 89.9774C286.504 89.7651 287.023 89.6809 287.538 89.7334C288.052 89.7859 288.543 89.9732 288.962 90.2763C290.18 91.0354 291.182 92.0939 291.874 93.3507L292.728 94.7855L293.582 94.3072C294.053 94.0974 294.57 94.0145 295.083 94.067C295.595 94.1194 296.085 94.3053 296.503 94.6061C297.711 95.3775 298.701 96.4445 299.381 97.7061ZM294.334 100.268L293.651 104.47C293.651 104.598 293.523 104.641 293.394 104.564C293.323 104.521 293.263 104.462 293.217 104.393C293.171 104.323 293.142 104.245 293.13 104.162L292.276 97.4329L291.669 101.771C291.669 101.908 291.541 101.951 291.405 101.891C291.337 101.847 291.279 101.789 291.235 101.721C291.191 101.654 291.162 101.578 291.148 101.498L290.405 97.5439L290.038 98.8505C290.038 98.9615 289.902 98.9957 289.782 98.9274L286.127 96.818L286.878 98.1246L292.703 108.21L298.561 104.863L299.313 104.436L294.761 101.805C294.69 101.76 294.63 101.7 294.584 101.629C294.538 101.558 294.508 101.479 294.496 101.395L294.334 100.268Z" fill="white"/>
<path d="M339.382 131.149L339.374 134.138L304.556 114.035L304.565 111.046L339.382 131.149Z" fill="white"/>
<path d="M346.086 129.15L346.078 132.148L304.573 108.185L304.582 105.187L346.086 129.15Z" fill="white"/>
<path d="M318.861 107.561L318.852 110.55L304.59 102.318L304.599 99.3287L318.861 107.561Z" fill="white"/>
<path d="M353.217 153.814L286.05 115.034C285.796 114.859 285.504 114.747 285.197 114.709C284.891 114.67 284.58 114.705 284.291 114.812H284.24L284.137 114.872L281.421 116.434H281.362H281.319C281.074 116.63 280.882 116.882 280.758 117.17C280.635 117.457 280.584 117.771 280.61 118.083L280.559 136.187C280.606 137.101 280.869 137.991 281.326 138.784C281.783 139.576 282.422 140.25 283.189 140.748L350.356 179.528C350.626 179.724 350.943 179.844 351.275 179.876C351.607 179.907 351.942 179.849 352.244 179.707L355.011 178.11C355.272 177.915 355.478 177.654 355.609 177.355C355.739 177.055 355.789 176.727 355.754 176.402L355.805 158.289C355.747 157.394 355.483 156.525 355.035 155.749C354.586 154.972 353.964 154.31 353.217 153.814Z" fill="#467445"/>
<path opacity="0.3" d="M353.217 153.814L286.05 115.034C285.796 114.859 285.504 114.747 285.197 114.709C284.891 114.67 284.58 114.705 284.291 114.812H284.24L284.137 114.872L281.421 116.434C281.718 116.306 282.044 116.257 282.365 116.291C282.687 116.326 282.994 116.443 283.258 116.631L350.425 155.428C351.516 156.137 352.337 157.193 352.756 158.426L355.557 156.829C355.141 155.588 354.316 154.525 353.217 153.814Z" fill="white"/>
<path opacity="0.2" d="M352.756 158.426C352.948 158.924 353.049 159.454 353.055 159.988L353.004 178.102C353.04 178.428 352.988 178.758 352.855 179.059C352.721 179.359 352.51 179.618 352.244 179.81L355.011 178.213C355.272 178.017 355.478 177.757 355.609 177.457C355.739 177.158 355.789 176.829 355.754 176.505L355.805 158.391C355.794 157.863 355.693 157.34 355.506 156.846L352.756 158.426Z" fill="black"/>
<path d="M342.884 168.4L342.875 171.389L323.865 160.415L323.874 157.418L342.884 168.4Z" fill="white"/>
<path d="M345.284 163.908L345.275 166.906L323.874 154.548L323.882 151.559L345.284 163.908Z" fill="white"/>
<path d="M333.413 151.192L333.404 154.181L323.891 148.69L323.899 145.701L333.413 151.192Z" fill="white"/>
<path d="M294.564 133.899C294.873 134.098 295.13 134.367 295.314 134.685C295.498 135.003 295.604 135.36 295.623 135.726V137.75C295.623 138.416 295.137 138.69 294.556 138.357L292.797 137.34C292.491 137.139 292.237 136.868 292.055 136.551C291.873 136.234 291.767 135.878 291.746 135.513V133.489C291.746 132.814 292.225 132.549 292.805 132.882L294.564 133.899Z" fill="white"/>
<path opacity="0.4" d="M293.71 126.161L293.967 126.324V128.758C293.882 128.696 293.793 128.639 293.702 128.587C290.329 126.64 287.579 128.202 287.562 132.088C287.607 133.819 288.033 135.519 288.809 137.067L286.998 137.298C286.032 135.288 285.505 133.096 285.452 130.867C285.461 125.649 289.167 123.54 293.71 126.161Z" fill="white"/>
<path d="M293.967 126.324C298.39 129.039 301.935 135.257 301.917 140.372C301.9 145.487 298.194 147.699 293.659 145.078C290.716 143.203 288.397 140.495 286.998 137.298L288.809 137.067C289.854 139.357 291.538 141.297 293.659 142.652C297.075 144.599 299.791 143.028 299.8 139.151C299.686 137.088 299.101 135.078 298.09 133.277C297.079 131.475 295.668 129.929 293.967 128.758V126.324Z" fill="white"/>
<path opacity="0.4" d="M312.02 136.734L312.285 136.896V139.33C312.2 139.268 312.112 139.211 312.02 139.159C308.647 137.212 305.897 138.775 305.889 142.661C305.931 144.391 306.354 146.091 307.127 147.64L305.325 147.87C304.352 145.863 303.822 143.67 303.771 141.439C303.779 136.222 307.485 134.078 312.02 136.734Z" fill="white"/>
<path d="M312.883 144.471C313.189 144.672 313.443 144.943 313.625 145.26C313.808 145.577 313.913 145.933 313.933 146.299V148.314C313.933 148.989 313.463 149.262 312.874 148.929L311.115 147.913C310.809 147.712 310.554 147.442 310.371 147.125C310.189 146.807 310.084 146.451 310.065 146.085V144.061C310.065 143.387 310.543 143.122 311.132 143.455L312.883 144.471Z" fill="white"/>
<path d="M312.285 136.896C316.7 139.612 320.244 145.829 320.227 150.945C320.21 156.06 316.512 158.272 311.969 155.65C309.026 153.777 306.71 151.068 305.316 147.87L307.118 147.64C308.167 149.93 309.854 151.87 311.978 153.225C315.351 155.172 318.101 153.6 318.118 149.723C318.004 147.66 317.418 145.649 316.406 143.848C315.393 142.046 313.98 140.5 312.276 139.33L312.285 136.896Z" fill="white"/>
<path d="M288.86 154.822C289.291 155.101 289.65 155.479 289.905 155.924C290.161 156.37 290.306 156.87 290.329 157.384V160.193C290.329 161.124 289.671 161.5 288.851 161.047L286.409 159.638C285.981 159.356 285.625 158.977 285.372 158.532C285.118 158.087 284.973 157.588 284.948 157.076V154.267C284.948 153.336 285.615 152.96 286.417 153.413L288.86 154.822Z" fill="#467445"/>
<path d="M288.843 162.73C289.273 163.009 289.63 163.387 289.884 163.833C290.138 164.279 290.282 164.779 290.303 165.292V168.101C290.303 169.032 289.645 169.408 288.834 168.955L286.392 167.546C285.961 167.267 285.604 166.889 285.35 166.443C285.096 165.997 284.952 165.497 284.931 164.984V162.166C284.931 161.235 285.589 160.859 286.4 161.312L288.843 162.73Z" fill="#467445"/>
<path d="M288.817 170.646C289.248 170.926 289.606 171.304 289.862 171.749C290.117 172.195 290.263 172.695 290.286 173.208V176.018C290.286 176.949 289.62 177.325 288.809 176.872L286.366 175.463C285.936 175.183 285.579 174.805 285.325 174.359C285.071 173.913 284.927 173.413 284.906 172.901V170.091C284.906 169.169 285.563 168.793 286.375 169.237L288.817 170.646Z" fill="#467445"/>
<path d="M329.92 196.07L329.912 198.862L292.797 177.427L292.805 174.634L329.92 196.07Z" fill="#467445"/>
<path d="M344.72 196.685L344.711 199.486L292.814 169.528L292.822 166.726L344.72 196.685Z" fill="#467445"/>
<path d="M337.871 184.814L337.862 187.607L292.839 161.62L292.848 158.818L337.871 184.814Z" fill="#467445"/>
<path d="M201.632 61.0695C201.632 53.8703 199.07 48.8146 194.962 46.432L185.748 40.992L185.62 40.9237C185.251 40.7103 184.869 40.522 184.475 40.36C184.403 40.3306 184.329 40.305 184.253 40.2832L183.86 40.1465C183.664 40.0782 183.476 39.9928 183.271 39.933C183.066 39.8733 182.827 39.8306 182.614 39.7793L182.204 39.6939C182.134 39.6719 182.062 39.6547 181.99 39.6427C181.533 39.5624 181.071 39.5082 180.607 39.4804H180.188C179.83 39.4804 179.471 39.4804 179.095 39.4804L178.719 39.5231L178.036 39.5914C177.823 39.5914 177.609 39.5914 177.396 39.6512L176.824 39.7793C176.516 39.8306 176.209 39.8989 175.893 39.9757C175.722 39.9757 175.56 40.0355 175.389 40.0868C175.004 40.1892 174.62 40.3088 174.227 40.4369H174.108C173.638 40.5906 173.177 40.77 172.699 40.9664L172.135 41.2226L171.597 41.4702C170.905 41.7948 170.214 42.1449 169.505 42.5548L102.141 81.4545C101.407 81.8815 100.681 82.3427 99.9635 82.838L99.2803 83.3333C98.7935 83.6835 98.3153 84.0421 97.8371 84.4179L97.0599 85.0669C96.6244 85.4342 96.2059 85.8099 95.7704 86.1942L95.0018 86.9116L94.515 87.3642C94.3527 87.5265 94.1905 87.7143 94.0282 87.8851C93.5158 88.4061 93.0034 88.9441 92.5081 89.4992C92.3544 89.6785 92.1836 89.8408 92.0213 90.0201L91.637 90.4898C91.3381 90.84 91.0477 91.2072 90.783 91.5659C90.5183 91.9246 90.3902 92.0356 90.2023 92.2747C90.0144 92.5138 89.9034 92.6846 89.7582 92.8896C89.613 93.0945 89.3312 93.4532 89.1262 93.7436L88.6822 94.3328C88.443 94.6744 88.221 95.0246 87.9904 95.3747L87.5463 96.0323L87.367 96.3056C86.9571 96.9461 86.5642 97.5866 86.1799 98.2442L86.1116 98.3723L85.8896 98.7651C85.6248 99.2263 85.3601 99.696 85.1124 100.166C84.9929 100.379 84.8904 100.601 84.7794 100.823L84.4292 101.506C84.3353 101.711 84.2243 101.908 84.1303 102.104C83.8656 102.642 83.6265 103.18 83.3874 103.727L83.2593 104.009L83.2166 104.086C82.9262 104.769 82.6444 105.452 82.3626 106.135C82.3199 106.263 82.2772 106.391 82.2259 106.519C82.1747 106.648 82.0551 107.015 81.9612 107.262C81.8672 107.51 81.705 107.946 81.594 108.296C81.4829 108.646 81.4317 108.825 81.3463 109.099C81.2609 109.372 81.1499 109.722 81.0645 110.029C80.9791 110.337 80.9364 110.422 80.8852 110.619C80.7827 110.969 80.7143 111.319 80.6289 111.669C80.5435 112.019 80.424 112.446 80.3386 112.83C80.3386 112.967 80.2703 113.104 80.2361 113.24C80.1763 113.522 80.1507 113.796 80.0995 114.094C79.9799 114.701 79.8689 115.307 79.7835 115.913C79.7835 116.084 79.7152 116.255 79.6981 116.417C79.6468 116.802 79.6212 117.177 79.5871 117.562C79.5529 117.946 79.5273 118.1 79.5102 118.364C79.4419 119.218 79.3992 120.072 79.4077 120.884L79.6981 250.871C79.6981 258.07 82.2601 263.134 86.3678 265.517L95.591 270.974C95.3319 270.813 95.0811 270.639 94.8395 270.453C99.0412 273.382 105.088 273.28 111.826 269.386L179.172 230.478C191.777 223.201 201.974 205.549 201.931 191.048L201.632 61.0695Z" fill="#467445"/>
<path opacity="0.6" d="M201.632 61.0695C201.632 53.8703 199.07 48.8146 194.962 46.432L185.748 40.992L185.62 40.9237C185.251 40.7103 184.869 40.522 184.475 40.36C184.403 40.3306 184.329 40.305 184.253 40.2832L183.86 40.1465C183.664 40.0782 183.476 39.9928 183.271 39.933C183.066 39.8733 182.827 39.8306 182.614 39.7793L182.204 39.6939C182.134 39.6719 182.062 39.6547 181.99 39.6427C181.533 39.5624 181.071 39.5082 180.607 39.4804H180.188C179.83 39.4804 179.471 39.4804 179.095 39.4804L178.719 39.5231L178.036 39.5914C177.823 39.5914 177.609 39.5914 177.396 39.6512L176.824 39.7793C176.516 39.8306 176.209 39.8989 175.893 39.9757C175.722 39.9757 175.56 40.0355 175.389 40.0868C175.004 40.1892 174.62 40.3088 174.227 40.4369H174.108C173.638 40.5906 173.177 40.77 172.699 40.9664L172.135 41.2226L171.597 41.4702C170.905 41.7948 170.214 42.1449 169.505 42.5548L102.141 81.4545C101.407 81.8815 100.681 82.3427 99.9635 82.838L99.2803 83.3333C98.7935 83.6835 98.3153 84.0421 97.8371 84.4179L97.0599 85.0669C96.6244 85.4342 96.2059 85.8099 95.7704 86.1942L95.0018 86.9116L94.515 87.3642C94.3527 87.5265 94.1905 87.7143 94.0282 87.8851C93.5158 88.4061 93.0034 88.9441 92.5081 89.4992C92.3544 89.6785 92.1836 89.8408 92.0213 90.0201L91.637 90.4898C91.3381 90.84 91.0477 91.2072 90.783 91.5659C90.5183 91.9246 90.3902 92.0356 90.2023 92.2747C90.0144 92.5138 89.9034 92.6846 89.7582 92.8896C89.613 93.0945 89.3312 93.4532 89.1262 93.7436L88.6822 94.3328C88.443 94.6744 88.221 95.0246 87.9904 95.3747L87.5463 96.0323L87.367 96.3056C86.9571 96.9461 86.5642 97.5866 86.1799 98.2442L86.1116 98.3723L85.8896 98.7651C85.6248 99.2263 85.3601 99.696 85.1124 100.166C84.9929 100.379 84.8904 100.601 84.7794 100.823L84.4292 101.506C84.3353 101.711 84.2243 101.908 84.1303 102.104C83.8656 102.642 83.6265 103.18 83.3874 103.727L83.2593 104.009L83.2166 104.086C82.9262 104.769 82.6444 105.452 82.3626 106.135C82.3199 106.263 82.2772 106.391 82.2259 106.519C82.1747 106.648 82.0551 107.015 81.9612 107.262C81.8672 107.51 81.705 107.946 81.594 108.296C81.4829 108.646 81.4317 108.825 81.3463 109.099C81.2609 109.372 81.1499 109.722 81.0645 110.029C80.9791 110.337 80.9364 110.422 80.8852 110.619C80.7827 110.969 80.7143 111.319 80.6289 111.669C80.5435 112.019 80.424 112.446 80.3386 112.83C80.3386 112.967 80.2703 113.104 80.2361 113.24C80.1763 113.522 80.1507 113.796 80.0995 114.094C79.9799 114.701 79.8689 115.307 79.7835 115.913C79.7835 116.084 79.7152 116.255 79.6981 116.417C79.6468 116.802 79.6212 117.177 79.5871 117.562C79.5529 117.946 79.5273 118.1 79.5102 118.364C79.4419 119.218 79.3992 120.072 79.4077 120.884L79.6981 250.871C79.6981 258.07 82.2601 263.134 86.3678 265.517L95.591 270.974C95.3319 270.813 95.0811 270.639 94.8395 270.453C99.0412 273.382 105.088 273.28 111.826 269.386L179.172 230.478C191.777 223.201 201.974 205.549 201.931 191.048L201.632 61.0695Z" fill="white"/>
<path opacity="0.1" d="M88.9042 256.302L88.648 126.324L79.4248 120.867L79.7152 250.854C79.7152 258.053 82.2772 263.117 86.3849 265.5L95.6081 270.957C91.4747 268.574 88.9298 263.51 88.9042 256.302Z" fill="black"/>
<path opacity="0.3" d="M181.358 46.6882C182.002 46.3925 182.66 46.1303 183.331 45.9025H183.451C184.014 45.7146 184.569 45.5694 185.159 45.4413L186.089 45.2364C186.499 45.1595 186.901 45.0997 187.302 45.057L187.985 44.9802C188.475 44.9548 188.965 44.9548 189.454 44.9802H189.787C190.361 45.0144 190.931 45.0857 191.495 45.1937L191.905 45.2876C192.327 45.3868 192.744 45.5094 193.152 45.6548L193.545 45.7829C194.06 45.9838 194.56 46.2236 195.039 46.5003L185.748 40.992L185.62 40.9237C185.251 40.7103 184.869 40.522 184.475 40.36C184.403 40.3306 184.329 40.305 184.253 40.2832L183.86 40.1465C183.664 40.0782 183.476 39.9928 183.271 39.933C183.066 39.8733 182.827 39.8306 182.614 39.7793L182.204 39.6939C182.134 39.6719 182.062 39.6547 181.99 39.6427C181.533 39.5624 181.071 39.5082 180.607 39.4804H180.188C179.83 39.4804 179.471 39.4804 179.095 39.4804L178.719 39.5231L178.036 39.5914C177.823 39.5914 177.609 39.5914 177.396 39.6512L176.824 39.7793C176.516 39.8306 176.209 39.8989 175.893 39.9757C175.722 39.9757 175.56 40.0355 175.389 40.0868C175.005 40.1892 174.62 40.3088 174.227 40.4369H174.108C173.638 40.5906 173.177 40.77 172.699 40.9664L172.135 41.2226L171.597 41.4702C170.905 41.7948 170.214 42.1449 169.505 42.5548L102.141 81.4545C101.407 81.8815 100.681 82.3427 99.9635 82.838L99.2803 83.3419C98.7935 83.6835 98.3153 84.0421 97.8371 84.4179L97.0599 85.0669C96.6244 85.4342 96.2059 85.8099 95.7704 86.1942L95.0018 86.9116L94.515 87.3642C94.3527 87.5265 94.1905 87.7143 94.0282 87.8851C93.5158 88.4061 93.0034 88.9441 92.5081 89.4992C92.3544 89.6785 92.1836 89.8408 92.0213 90.0201L91.637 90.4898C91.3381 90.84 91.0477 91.2072 90.783 91.5659C90.5183 91.9246 90.3902 92.0356 90.2023 92.2747C90.0144 92.5138 89.9034 92.6846 89.7582 92.8896C89.613 93.0945 89.3312 93.4532 89.1262 93.7436L88.6822 94.3328C88.4431 94.6744 88.221 95.0246 87.9904 95.3747L87.5463 96.0323L87.367 96.3056C86.9571 96.9461 86.5642 97.5866 86.18 98.2442L86.1116 98.3723L85.8896 98.7651C85.6248 99.2348 85.3601 99.696 85.1125 100.166C84.9929 100.379 84.8904 100.601 84.7794 100.823L84.4292 101.506C84.3353 101.711 84.2243 101.908 84.1303 102.104C83.8656 102.642 83.6265 103.18 83.3874 103.727L83.2593 104.009L83.2166 104.086C82.9262 104.769 82.6444 105.452 82.3626 106.135C82.3199 106.263 82.2772 106.391 82.2259 106.519C82.1747 106.648 82.0551 107.015 81.9612 107.262C81.8672 107.51 81.705 107.946 81.594 108.296C81.4829 108.646 81.4317 108.825 81.3463 109.099C81.2609 109.372 81.1499 109.722 81.0645 110.029C80.9791 110.337 80.9364 110.422 80.8852 110.619C80.7827 110.969 80.7143 111.319 80.6289 111.669C80.5435 112.019 80.424 112.446 80.3386 112.83C80.3386 112.967 80.2703 113.104 80.2361 113.24C80.1763 113.522 80.1507 113.796 80.0995 114.094C79.9799 114.701 79.8689 115.307 79.7835 115.913C79.7835 116.084 79.7152 116.255 79.6981 116.417C79.6468 116.802 79.6212 117.177 79.5871 117.562C79.5529 117.946 79.5273 118.1 79.5102 118.364C79.4419 119.218 79.3992 120.072 79.4077 120.884L88.6309 126.341C88.6309 125.487 88.6309 124.633 88.7249 123.821C88.7249 123.548 88.7847 123.283 88.8103 123.01C88.8615 122.464 88.9298 121.917 89.0067 121.37C89.0835 120.824 89.2031 120.158 89.3227 119.551C89.3995 119.133 89.4678 118.697 89.5618 118.305C89.6557 117.912 89.7497 117.527 89.8522 117.135C89.9888 116.597 90.1254 116.05 90.2792 115.504C90.3731 115.196 90.4756 114.88 90.5695 114.564C90.7659 113.958 90.9709 113.343 91.1844 112.737C91.2698 112.489 91.3552 112.233 91.4491 111.985C91.7651 111.131 92.0982 110.277 92.4654 109.483L92.5935 109.192C92.9266 108.449 93.2681 107.715 93.6354 106.981C93.7464 106.75 93.866 106.519 93.9855 106.297C94.3357 105.606 94.7114 104.922 95.0957 104.239L95.3177 103.846C95.7789 103.052 96.2571 102.275 96.7525 101.506L97.1966 100.84C97.5638 100.294 97.9395 99.7557 98.3238 99.2177L98.9643 98.3637C99.2974 97.9196 99.6475 97.5097 99.9891 97.0486L100.843 95.964L101.697 94.9819C102.192 94.4268 102.705 93.8888 103.217 93.3678C103.542 93.0348 103.858 92.7102 104.191 92.3943C104.524 92.0783 104.703 91.9075 104.959 91.6769C105.386 91.2841 105.813 90.9083 106.249 90.5496L107.026 89.9006C107.504 89.5248 107.983 89.1661 108.469 88.816C108.7 88.6537 108.922 88.4744 109.153 88.3207C109.87 87.8254 110.596 87.3642 111.33 86.9372L178.694 48.046C179.403 47.6361 180.094 47.286 180.786 46.9615L181.358 46.6882Z" fill="white"/>
<path d="M100.39 256.268C100.39 259.095 101.014 260.538 101.33 260.982C101.427 260.991 101.524 260.991 101.62 260.982C102.141 260.982 103.61 260.829 106.07 259.411L173.433 220.52C182.528 215.268 190.513 201.51 190.445 191.065L190.376 157.674L100.279 210.255L100.39 256.268Z" fill="#467445"/>
<path d="M190.154 61.1037C190.154 58.2428 189.505 56.8337 189.198 56.3896H188.814H188.549L188.173 56.4494L187.814 56.5263C187.592 56.5775 187.276 56.6629 187.046 56.7398H186.935C186.704 56.8252 186.397 56.9447 186.081 57.107L185.765 57.2522C185.252 57.4913 184.851 57.6962 184.501 57.9012L117.137 96.7924C116.719 97.04 116.283 97.3304 115.763 97.6464L115.25 98.0136C114.917 98.2612 114.584 98.5089 114.259 98.7651L113.798 99.1409L113.704 99.2263C113.38 99.491 113.072 99.7643 112.765 100.038L112.193 100.576L111.578 101.199L111.467 101.31C111.074 101.703 110.69 102.113 110.323 102.531L110.194 102.668L109.648 103.283L108.956 104.137C108.683 104.478 108.41 104.82 108.153 105.17L107.65 105.836C107.351 106.263 107.052 106.69 106.796 107.126L106.437 107.655C106.027 108.296 105.643 108.919 105.31 109.491L105.122 109.824C104.814 110.362 104.524 110.909 104.268 111.456L103.994 111.994C103.704 112.574 103.431 113.155 103.14 113.702C103.089 113.813 103.046 113.924 102.987 114.043C102.748 114.607 102.5 115.222 102.235 115.913L102.03 116.494C101.859 116.964 101.706 117.434 101.56 117.903C101.484 118.142 101.407 118.381 101.338 118.612C101.219 119.022 101.116 119.423 101.014 119.85L100.954 120.081L100.8 120.696L100.698 121.225L100.63 121.601C100.544 122.037 100.467 122.455 100.408 122.899C100.348 123.343 100.305 123.651 100.271 124.026L100.211 124.573C100.16 125.213 100.143 125.743 100.143 126.213L100.322 206.361L190.419 153.78L190.154 61.1037Z" fill="#455A64"/>
<path d="M100.271 206.446L100.279 210.272L190.376 157.691L190.359 153.865L100.271 206.446Z" fill="white"/>
<path d="M175.799 106.289L167.216 111.251C170.307 104.419 169.88 97.5866 165.935 95.3662C163.732 94.1108 160.811 94.5122 157.976 96.2202C154.656 98.2841 151.921 101.166 150.034 104.589L147.685 108.654L147.284 103.462C147.284 103.027 146.925 102.856 146.489 103.078C146.283 103.213 146.107 103.388 145.972 103.594C145.837 103.8 145.746 104.031 145.704 104.273L144.969 109.064L143.62 108.296C141.417 107.04 138.496 107.442 135.652 109.107C132.333 111.169 129.601 114.052 127.719 117.476C123.79 124.308 123.406 131.533 126.531 134.787L117.932 139.749C117.698 139.896 117.503 140.099 117.365 140.338C117.227 140.578 117.149 140.847 117.137 141.123C117.137 141.627 117.496 141.832 117.932 141.585L127.932 135.786L131.015 137.545L146.976 146.632L148.795 143.481L148.872 144.463C148.872 144.907 149.248 145.078 149.666 144.847C149.882 144.704 150.065 144.517 150.202 144.297C150.339 144.078 150.427 143.831 150.461 143.574L150.777 140.047L162.826 119.176L165.892 113.872L175.85 108.125C176.074 107.97 176.259 107.765 176.391 107.527C176.523 107.288 176.598 107.022 176.61 106.75C176.61 106.238 176.243 106.033 175.799 106.289Z" fill="#467445"/>
<path d="M146.481 103.035C146.916 102.813 147.241 102.984 147.275 103.419L147.676 108.612L149.718 134.539L152.186 107.527C152.211 107.277 152.292 107.035 152.422 106.82C152.552 106.604 152.728 106.42 152.937 106.28C153.347 106.041 153.68 106.152 153.748 106.554L156.669 122.335L157.216 117.801C157.251 117.551 157.339 117.313 157.475 117.101C157.611 116.888 157.79 116.708 158.001 116.571L167.216 111.251L175.807 106.289C176.251 106.033 176.61 106.238 176.61 106.75C176.594 107.025 176.514 107.293 176.376 107.532C176.238 107.77 176.046 107.974 175.816 108.125L165.858 113.872L158.676 118.006L157.54 127.4C157.506 127.646 157.42 127.883 157.288 128.093C157.155 128.304 156.979 128.484 156.772 128.621C156.37 128.851 156.046 128.732 155.969 128.339L153.176 113.181L150.734 140.056L150.418 143.583C150.385 143.84 150.296 144.086 150.159 144.306C150.022 144.525 149.84 144.713 149.624 144.855C149.205 145.086 148.864 144.915 148.829 144.471L148.753 143.489L146.191 110.764L141.921 138.51C141.878 138.75 141.787 138.979 141.653 139.183C141.52 139.387 141.346 139.562 141.143 139.697C140.699 139.928 140.383 139.757 140.349 139.322L138.641 119.68L136.703 130.039C136.655 130.271 136.562 130.492 136.428 130.688C136.295 130.885 136.124 131.053 135.925 131.183L127.932 135.786L117.966 141.542C117.53 141.79 117.172 141.542 117.172 141.081C117.183 140.804 117.261 140.535 117.399 140.295C117.538 140.056 117.732 139.854 117.966 139.706L126.566 134.744L135.328 129.68L138.231 114.197C138.277 113.962 138.369 113.739 138.502 113.541C138.636 113.343 138.808 113.174 139.008 113.044C139.452 112.822 139.76 113.001 139.803 113.42L141.459 132.208L145.003 109.005L145.738 104.214C145.777 103.978 145.863 103.752 145.99 103.549C146.118 103.347 146.285 103.172 146.481 103.035Z" fill="white"/>
<path d="M135.755 163.276L135.78 174.421L132.509 176.308L132.484 167.999L130.819 168.955V166.129L135.755 163.276Z" fill="white"/>
<path d="M140.563 160.245C142.86 158.921 144.483 159.391 144.491 161.474C144.491 162.567 144.252 163.695 142.834 165.983L141.459 168.238L144.722 166.359V169.271L136.95 173.763V171.458L140.452 165.702C140.889 165.13 141.152 164.446 141.212 163.729C141.212 163.199 140.887 163.046 140.264 163.404C139.588 163.838 139.084 164.493 138.838 165.258H136.37C137.133 163.145 138.618 161.369 140.563 160.245Z" fill="white"/>
<path d="M149.76 154.933C152.322 153.464 154.158 154.531 154.167 158.221C154.222 159.873 153.848 161.512 153.082 162.977C152.316 164.442 151.183 165.684 149.794 166.581C147.232 168.067 145.388 166.991 145.379 163.293C145.327 161.64 145.702 160.002 146.47 158.537C147.238 157.072 148.371 155.83 149.76 154.933ZM149.76 163.575C150.392 163.208 150.862 162.269 150.853 160.159C150.845 158.05 150.375 157.597 149.743 157.99C149.111 158.383 148.633 159.297 148.642 161.406C148.65 163.515 149.128 163.968 149.76 163.584" fill="white"/>
<path d="M158.394 157.794C159.188 157.332 159.872 157.631 159.872 158.75C159.865 159.282 159.728 159.804 159.472 160.27C159.216 160.737 158.848 161.133 158.403 161.423C158.027 161.637 157.754 161.688 157.549 161.56V161.842L156.353 162.533V157.777L157.608 157.051V158.545C157.795 158.226 158.067 157.966 158.394 157.794ZM158.095 160.475C158.255 160.368 158.385 160.221 158.472 160.049C158.559 159.877 158.6 159.686 158.591 159.493C158.591 159.04 158.369 158.938 158.095 159.1C157.936 159.204 157.807 159.348 157.722 159.517C157.636 159.687 157.597 159.876 157.608 160.065C157.608 160.518 157.822 160.629 158.095 160.475Z" fill="white"/>
<path d="M162.297 155.53C163.091 155.078 163.766 155.385 163.766 156.513C163.763 157.042 163.628 157.562 163.373 158.026C163.118 158.49 162.751 158.883 162.306 159.169C161.972 159.356 161.716 159.416 161.528 159.314V160.8L160.273 161.526V156.786L161.469 156.094V156.376C161.66 156.022 161.947 155.729 162.297 155.53ZM162.007 158.221C162.167 158.115 162.297 157.97 162.383 157.8C162.47 157.629 162.511 157.438 162.502 157.247C162.502 156.794 162.28 156.683 161.998 156.846C161.837 156.952 161.707 157.099 161.62 157.271C161.533 157.443 161.493 157.635 161.503 157.828C161.503 158.28 161.725 158.383 162.007 158.221Z" fill="white"/>
<path d="M168.198 152.123C168.89 151.73 169.411 151.91 169.411 152.977V154.975L168.155 155.701V153.993C168.155 153.549 168.019 153.464 167.822 153.575C167.686 153.669 167.578 153.798 167.509 153.948C167.44 154.098 167.412 154.264 167.429 154.429V156.137L166.174 156.863V155.155C166.174 154.711 166.037 154.625 165.824 154.745C165.688 154.839 165.58 154.968 165.511 155.118C165.441 155.268 165.414 155.434 165.431 155.599V157.307L164.167 158.033V154.531L165.363 153.848V154.164C165.57 153.811 165.864 153.517 166.217 153.31C166.618 153.08 166.96 153.054 167.173 153.31C167.394 152.824 167.749 152.412 168.198 152.123Z" fill="white"/>
<path d="M116.053 210.938C119.076 209.187 121.536 210.596 121.553 214.064C121.454 215.961 120.908 217.807 119.958 219.452C119.008 221.097 117.681 222.493 116.087 223.526C113.055 225.277 110.596 223.876 110.587 220.392C110.688 218.496 111.235 216.652 112.185 215.009C113.135 213.366 114.46 211.971 116.053 210.938Z" fill="white"/>
<path d="M182.024 177.931L182.033 180.296L127.496 211.783L127.488 209.426L182.024 177.931Z" fill="white"/>
<path d="M182.084 196.3V198.666L127.548 230.153L127.539 227.787L182.084 196.3Z" fill="white"/>
<path d="M156.797 215.328L156.806 217.685L127.556 234.568V232.211L156.797 215.328Z" fill="white"/>
<path d="M149 210.972V213.338L127.531 225.738V223.372L149 210.972Z" fill="white"/>
<path d="M176.089 185.788L176.098 188.145L127.505 216.199V213.842L176.089 185.788Z" fill="white"/>
<path d="M160.973 185.668L160.982 188.025L127.479 207.368V205.003L160.973 185.668Z" fill="white"/>
<path d="M116.104 229.273C119.127 227.523 121.595 228.923 121.604 232.399C121.504 234.296 120.956 236.141 120.006 237.786C119.056 239.43 117.731 240.827 116.138 241.861C113.115 243.612 110.647 242.203 110.639 238.727C110.739 236.832 111.286 234.987 112.236 233.344C113.186 231.701 114.512 230.306 116.104 229.273Z" fill="white"/>
<path d="M252.565 254.159L243.231 248.736L118.845 310.677L128.205 316.082L252.565 254.159Z" fill="#455A64"/>
<path d="M312.9 289.224L188.754 351.037L198.797 356.835L322.9 295.031L312.9 289.224Z" fill="#455A64"/>
<path opacity="0.3" d="M252.565 254.159L243.231 248.736L118.845 310.677L128.205 316.082L252.565 254.159Z" fill="white"/>
<path d="M188.754 351.037L128.205 316.082L118.845 310.677L101.441 308.388L181.119 354.692L198.797 356.835L188.754 351.037Z" fill="#455A64"/>
<path opacity="0.5" d="M188.754 351.037L128.205 316.082L118.845 310.677L101.441 308.388L181.119 354.692L198.797 356.835L188.754 351.037Z" fill="white"/>
<path opacity="0.3" d="M312.9 289.224L188.754 351.037L198.797 356.835L322.9 295.031L312.9 289.224Z" fill="white"/>
<path d="M181.119 354.692L101.441 308.388L101.458 329.396L101.475 338.654L181.145 384.958L181.119 354.692Z" fill="#455A64"/>
<path d="M109.144 331.753V324.768C109.143 324.467 109.221 324.172 109.37 323.911C109.52 323.651 109.735 323.434 109.995 323.283C110.255 323.133 110.55 323.053 110.85 323.053C111.151 323.053 111.446 323.131 111.706 323.282L171.247 357.886C171.896 358.261 172.435 358.8 172.81 359.449C173.185 360.098 173.382 360.834 173.382 361.584V368.569C173.383 368.87 173.305 369.165 173.156 369.426C173.006 369.686 172.791 369.903 172.531 370.054C172.271 370.204 171.976 370.284 171.676 370.284C171.375 370.284 171.08 370.205 170.82 370.055L111.305 335.451C110.651 335.08 110.107 334.542 109.727 333.893C109.348 333.243 109.147 332.505 109.144 331.753Z" fill="#37474F"/>
<path d="M181.119 354.692L181.145 384.958L322.934 303.093L322.9 295.031L198.797 356.835L181.119 354.692Z" fill="#455A64"/>
<path opacity="0.1" d="M181.119 354.692L181.145 384.958L322.934 303.093L322.9 295.031L198.797 356.835L181.119 354.692Z" fill="white"/>
<path d="M252.565 254.159L252.556 257.976H244.896L252.565 254.159Z" fill="#455A64"/>
<path d="M246.134 257.361L128.205 316.082L188.754 351.037L309.356 290.983L251.813 257.541C250.956 257.042 249.988 256.765 248.996 256.733C248.005 256.702 247.021 256.918 246.134 257.361Z" fill="#37474F"/>
<path d="M182.682 262.34C182.002 262.34 181.351 262.61 180.87 263.091C180.39 263.571 180.12 264.223 180.12 264.902V350.037C181.669 351.004 183.425 351.589 185.244 351.745V264.911C185.245 264.574 185.18 264.24 185.051 263.928C184.923 263.616 184.735 263.332 184.497 263.094C184.259 262.855 183.976 262.665 183.664 262.536C183.353 262.407 183.019 262.34 182.682 262.34Z" fill="#E0E0E0"/>
<path opacity="0.2" d="M182.682 262.34C182.002 262.34 181.351 262.61 180.87 263.091C180.39 263.571 180.12 264.223 180.12 264.902V350.037C181.669 351.004 183.425 351.589 185.244 351.745V264.911C185.245 264.574 185.18 264.24 185.051 263.928C184.923 263.616 184.735 263.332 184.497 263.094C184.259 262.855 183.976 262.665 183.664 262.536C183.353 262.407 183.019 262.34 182.682 262.34Z" fill="black"/>
<path opacity="0.3" d="M182.682 262.34C182.002 262.34 181.351 262.61 180.87 263.091C180.39 263.571 180.12 264.223 180.12 264.902V272.272C181.634 272.541 183.168 272.679 184.706 272.682H185.252V264.911C185.254 264.573 185.188 264.238 185.059 263.926C184.93 263.613 184.741 263.33 184.502 263.091C184.263 262.852 183.979 262.662 183.667 262.534C183.355 262.405 183.02 262.339 182.682 262.34Z" fill="black"/>
<path d="M115.242 225.926C114.562 225.926 113.91 226.196 113.43 226.676C112.949 227.157 112.68 227.808 112.68 228.488V311.941C114.249 312.83 116.002 313.345 117.804 313.444V228.496C117.805 228.159 117.739 227.825 117.611 227.513C117.483 227.201 117.294 226.918 117.056 226.679C116.818 226.44 116.535 226.251 116.224 226.122C115.913 225.992 115.579 225.926 115.242 225.926Z" fill="#E0E0E0"/>
<path opacity="0.2" d="M115.242 225.926C114.562 225.926 113.91 226.196 113.43 226.676C112.949 227.157 112.68 227.808 112.68 228.488V311.941C114.249 312.83 116.002 313.345 117.804 313.444V228.496C117.805 228.159 117.739 227.825 117.611 227.513C117.483 227.201 117.294 226.918 117.056 226.679C116.818 226.44 116.535 226.251 116.224 226.122C115.913 225.992 115.579 225.926 115.242 225.926Z" fill="black"/>
<path opacity="0.3" d="M115.242 225.926C114.562 225.926 113.91 226.196 113.43 226.676C112.949 227.157 112.68 227.808 112.68 228.488V235.175L117.804 238.146V228.496C117.805 228.159 117.739 227.825 117.611 227.513C117.483 227.201 117.294 226.918 117.056 226.679C116.818 226.44 116.535 226.251 116.224 226.122C115.913 225.992 115.579 225.926 115.242 225.926Z" fill="black"/>
<path d="M134.713 208.581C134.541 208.341 134.312 208.149 134.046 208.021C133.781 207.892 133.487 207.832 133.193 207.847L116.693 211.604C116.998 211.573 117.306 211.626 117.584 211.755C117.862 211.884 118.1 212.086 118.273 212.339C118.788 213.021 119.134 213.815 119.283 214.657C119.431 215.499 119.378 216.364 119.127 217.181C119.06 217.479 118.913 217.754 118.702 217.976C118.492 218.199 118.226 218.36 117.932 218.445L134.354 214.687C134.651 214.605 134.921 214.445 135.135 214.222C135.348 214 135.498 213.724 135.567 213.423C135.813 212.605 135.863 211.741 135.715 210.901C135.567 210.06 135.223 209.265 134.713 208.581Z" fill="#455A64"/>
<path d="M119.161 217.181C119.412 216.364 119.465 215.499 119.317 214.657C119.168 213.815 118.822 213.021 118.307 212.339C118.134 212.086 117.896 211.884 117.618 211.755C117.34 211.625 117.033 211.573 116.728 211.604L116.625 211.647C116.355 211.746 116.114 211.909 115.92 212.121C115.727 212.334 115.588 212.59 115.515 212.868C115.266 213.685 115.213 214.55 115.362 215.391C115.51 216.233 115.855 217.027 116.369 217.71C116.54 217.962 116.774 218.164 117.049 218.294C117.324 218.425 117.629 218.48 117.932 218.453H117.974C118.268 218.367 118.533 218.203 118.742 217.979C118.951 217.756 119.096 217.48 119.161 217.181Z" fill="#263238"/>
<path d="M214.844 255.73C214.674 255.489 214.447 255.295 214.183 255.165C213.919 255.035 213.626 254.974 213.332 254.987L196.833 258.762C197.139 258.732 197.447 258.786 197.725 258.916C198.003 259.047 198.24 259.25 198.413 259.505C198.926 260.186 199.27 260.979 199.419 261.819C199.567 262.659 199.515 263.523 199.267 264.339C199.193 264.636 199.044 264.909 198.832 265.13C198.621 265.352 198.356 265.515 198.062 265.603L214.485 261.853C214.779 261.766 215.046 261.604 215.259 261.382C215.471 261.161 215.623 260.887 215.698 260.59C215.95 259.77 216.004 258.902 215.855 258.057C215.707 257.212 215.36 256.415 214.844 255.73Z" fill="#455A64"/>
<path d="M196.713 258.762C196.747 258.758 196.781 258.758 196.815 258.762H196.713Z" fill="#455A64"/>
<path d="M199.301 264.322C199.549 263.506 199.601 262.642 199.453 261.802C199.305 260.962 198.96 260.169 198.447 259.488C198.275 259.233 198.037 259.03 197.759 258.899C197.481 258.769 197.173 258.715 196.867 258.745C196.833 258.741 196.798 258.741 196.764 258.745C196.495 258.845 196.254 259.01 196.062 259.224C195.87 259.438 195.733 259.696 195.663 259.975C195.412 260.79 195.359 261.654 195.507 262.494C195.656 263.335 196.002 264.128 196.517 264.808C196.687 265.06 196.922 265.262 197.197 265.392C197.472 265.523 197.777 265.578 198.08 265.551C198.372 265.469 198.638 265.313 198.852 265.097C199.066 264.882 199.221 264.614 199.301 264.322Z" fill="#263238"/>
<g opacity="0.4">
<path d="M134.713 208.581C134.541 208.341 134.312 208.149 134.046 208.021C133.781 207.892 133.487 207.832 133.193 207.847L116.693 211.604C116.998 211.573 117.306 211.626 117.584 211.755C117.862 211.884 118.1 212.086 118.273 212.339C118.788 213.021 119.134 213.815 119.283 214.657C119.431 215.499 119.378 216.364 119.127 217.181C119.06 217.479 118.913 217.754 118.702 217.976C118.492 218.199 118.226 218.36 117.932 218.445L134.354 214.687C134.652 214.605 134.921 214.445 135.135 214.222C135.348 214 135.498 213.724 135.567 213.423C135.813 212.605 135.863 211.741 135.715 210.901C135.567 210.06 135.223 209.265 134.713 208.581Z" fill="white"/>
</g>
<g opacity="0.4">
<path d="M214.844 255.73C214.674 255.489 214.447 255.295 214.183 255.165C213.919 255.035 213.626 254.974 213.332 254.987L196.833 258.762C197.139 258.732 197.447 258.786 197.725 258.916C198.003 259.047 198.24 259.25 198.413 259.505C198.926 260.186 199.27 260.979 199.419 261.819C199.567 262.659 199.515 263.523 199.267 264.339C199.193 264.636 199.044 264.909 198.832 265.13C198.621 265.352 198.356 265.515 198.062 265.603L214.485 261.853C214.779 261.766 215.046 261.604 215.259 261.382C215.471 261.161 215.623 260.887 215.698 260.59C215.95 259.77 216.004 258.902 215.855 258.057C215.707 257.212 215.36 256.415 214.844 255.73Z" fill="white"/>
<path d="M196.713 258.762C196.747 258.758 196.781 258.758 196.815 258.762H196.713Z" fill="white"/>
</g>
<path d="M196.491 260.06L189.932 261.7C184.549 263.056 178.85 262.256 174.048 259.471L113.961 224.781C113.367 224.445 112.887 223.938 112.584 223.326C112.281 222.715 112.168 222.026 112.26 221.35C112.352 220.673 112.644 220.04 113.1 219.531C113.555 219.022 114.152 218.662 114.815 218.496L117.445 217.847C118.35 217.112 118.248 213.124 116.326 212.834L113.568 213.509C111.905 213.913 110.403 214.807 109.255 216.075C108.106 217.343 107.365 218.927 107.128 220.622C106.891 222.316 107.168 224.042 107.923 225.577C108.678 227.112 109.877 228.385 111.364 229.231L171.486 263.886C175.507 266.22 180.073 267.452 184.723 267.456C186.913 267.438 189.093 267.151 191.213 266.602L197.635 265.005C198.515 264.347 198.413 260.359 196.491 260.06Z" fill="#E0E0E0"/>
<path d="M121.023 235.175V217.369L159.556 239.624V257.421L121.023 235.175Z" fill="#455A64"/>
<path d="M159.556 239.624L182.682 250.905V257.421H159.556V239.624Z" fill="#455A64"/>
<path d="M121.023 217.369L159.556 239.624L182.682 250.905L144.141 228.659L121.023 217.369Z" fill="#455A64"/>
<path opacity="0.1" d="M159.556 239.624L182.682 250.905V257.421H159.556V239.624Z" fill="white"/>
<path opacity="0.3" d="M121.023 217.369L159.556 239.624L182.682 250.905L144.141 228.659L121.023 217.369Z" fill="white"/>
<path opacity="0.2" d="M249.67 287.969C264.418 296.509 264.495 310.284 249.849 318.798C235.203 327.313 211.368 327.338 196.619 318.798C181.871 310.258 181.802 296.483 196.448 287.969C211.095 279.454 234.93 279.454 249.67 287.969Z" fill="black"/>
<path d="M221.761 191.749L224.998 177.632C220.584 178.25 216.411 180.017 212.896 182.756L195.953 196.078L207.61 199.674L221.761 191.749Z" fill="#FFA8A7"/>
<path d="M229.678 255.226L232.043 260.564C232.706 262.068 233.833 263.32 235.259 264.136C236.686 264.952 238.336 265.289 239.968 265.099L259.952 262.818C261.631 262.628 263.331 262.753 264.965 263.186L269.337 264.347V254.099L268.142 254.449C265.842 255.133 263.401 255.192 261.071 254.62L253.786 252.827C250.338 251.98 246.727 252.068 243.324 253.083L242.582 247.037L229.678 255.226Z" fill="#F28F8F"/>
<path d="M283.983 268.72C283.908 266.245 282.869 263.898 281.088 262.178C279.773 260.931 278.116 260.094 276.87 258.762C275.426 257.216 274.829 255.517 273.599 253.766C273.382 253.471 273.086 253.243 272.745 253.109C272.62 253.096 272.494 253.096 272.369 253.109C271.934 253.143 271.509 253.265 271.122 253.467C271.619 253.553 272.063 253.828 272.36 254.236C273.599 255.944 274.47 257.993 275.922 259.505C277.16 260.795 278.817 261.614 280.132 262.836C281.905 264.497 282.946 266.795 283.027 269.224C283.095 271.623 282.216 275.765 280.465 275.765C281.017 275.899 281.6 275.81 282.088 275.517C283.608 274.006 284.026 270.505 283.983 268.72Z" fill="#EBEBEB"/>
<path d="M273.599 253.766C274.829 255.517 275.426 257.182 276.87 258.762C278.116 260.094 279.773 260.931 281.088 262.178C282.869 263.898 283.908 266.245 283.983 268.72C283.983 270.504 283.608 274.006 282.147 275.492C284.009 274.373 284.521 270.419 284.462 268.489C284.38 266.062 283.342 263.766 281.575 262.101C280.26 260.88 278.595 260.06 277.356 258.762C275.905 257.25 275.315 255.585 274.077 253.886C273.923 253.675 273.728 253.497 273.503 253.364C273.279 253.23 273.029 253.143 272.77 253.109C273.102 253.247 273.389 253.474 273.599 253.766Z" fill="#455A64"/>
<path d="M267.698 254.185C267.274 254.371 266.808 254.439 266.348 254.381C266.348 254.381 264.999 254.244 264.555 254.159C263.701 253.997 263.616 254.962 263.616 254.962C264.124 255.016 264.636 255.016 265.144 254.962C265.26 255.139 265.412 255.29 265.59 255.405C265.768 255.52 265.968 255.596 266.178 255.628C266.605 255.712 267.023 255.841 267.424 256.012C267.623 256.103 267.791 256.25 267.906 256.435C268.021 256.621 268.08 256.836 268.073 257.054C267.997 257.532 267.527 257.814 267.219 258.215C267.076 258.449 266.995 258.715 266.983 258.988C266.971 259.261 267.029 259.533 267.151 259.778C266.877 259.66 266.571 259.641 266.284 259.724C265.998 259.806 265.749 259.985 265.58 260.231C265.259 260.747 265.066 261.333 265.016 261.939C264.928 262.343 264.9 262.757 264.931 263.169C264.945 263.376 265.002 263.579 265.097 263.764C265.193 263.949 265.325 264.113 265.486 264.245C265.649 264.372 265.851 264.441 266.058 264.441C266.265 264.441 266.467 264.372 266.63 264.245C267.723 266.021 272.719 266.696 275.221 270.052C277.724 273.408 278.27 275.791 280.491 275.791C282.199 275.791 283.053 271.649 283.053 269.249C282.972 266.82 281.931 264.523 280.157 262.861C278.842 261.64 277.186 260.82 275.947 259.531C274.495 258.019 273.624 255.969 272.386 254.261C272.089 253.854 271.645 253.578 271.148 253.493C270.997 253.476 270.846 253.476 270.695 253.493C269.662 253.534 268.645 253.768 267.698 254.185Z" fill="#467445"/>
<path d="M279.842 275.167L280.405 273.622C280.443 273.521 280.508 273.433 280.592 273.367C280.676 273.301 280.777 273.259 280.883 273.246C282.591 273.041 283.129 272.785 283.872 271.999C283.766 272.958 283.457 273.884 282.967 274.715C282.68 275.213 282.211 275.581 281.658 275.74C281.105 275.899 280.512 275.838 280.004 275.569C279.931 275.535 279.873 275.475 279.843 275.4C279.813 275.326 279.812 275.242 279.842 275.167Z" fill="#455A64"/>
<path d="M269.03 260.786C269.029 260.847 269.016 260.908 268.991 260.963C268.966 261.019 268.93 261.069 268.885 261.111C268.318 261.598 267.93 262.262 267.783 262.995C267.636 263.728 267.738 264.49 268.073 265.158C268.115 265.258 268.117 265.37 268.08 265.471C268.042 265.572 267.968 265.655 267.872 265.704C267.776 265.752 267.665 265.763 267.561 265.733C267.457 265.703 267.369 265.635 267.313 265.543C266.896 264.703 266.767 263.748 266.946 262.827C267.127 261.907 267.611 261.074 268.321 260.461C268.408 260.388 268.52 260.352 268.633 260.36C268.746 260.368 268.852 260.419 268.927 260.504C268.995 260.583 269.031 260.683 269.03 260.786Z" fill="#37474F"/>
<path d="M271.652 261.99C271.651 262.106 271.605 262.216 271.524 262.298C270.983 262.833 270.59 263.498 270.382 264.23C270.175 264.961 270.159 265.734 270.336 266.474C270.35 266.53 270.352 266.588 270.343 266.645C270.334 266.702 270.314 266.756 270.284 266.806C270.254 266.855 270.214 266.897 270.168 266.931C270.121 266.965 270.068 266.99 270.012 267.003C269.956 267.017 269.898 267.019 269.841 267.01C269.784 267.001 269.729 266.981 269.68 266.95C269.631 266.92 269.588 266.881 269.554 266.834C269.52 266.788 269.496 266.735 269.482 266.679C269.272 265.794 269.292 264.871 269.54 263.996C269.789 263.121 270.257 262.325 270.9 261.683C270.94 261.643 270.987 261.611 271.039 261.589C271.091 261.568 271.147 261.556 271.203 261.556C271.26 261.556 271.315 261.568 271.368 261.589C271.42 261.611 271.467 261.643 271.506 261.683C271.551 261.721 271.587 261.768 271.612 261.821C271.637 261.874 271.65 261.932 271.652 261.99Z" fill="#37474F"/>
<path d="M273.966 263.886C273.966 263.95 273.952 264.014 273.924 264.071C273.896 264.129 273.855 264.18 273.804 264.219C273.322 264.615 272.951 265.129 272.728 265.712C272.505 266.294 272.437 266.925 272.531 267.541C272.549 267.653 272.522 267.767 272.457 267.86C272.391 267.952 272.292 268.016 272.181 268.036C272.069 268.054 271.955 268.027 271.863 267.962C271.77 267.896 271.707 267.798 271.686 267.686C271.564 266.917 271.647 266.13 271.926 265.403C272.205 264.676 272.67 264.035 273.274 263.544C273.363 263.475 273.475 263.443 273.587 263.455C273.699 263.468 273.802 263.525 273.872 263.613C273.934 263.69 273.967 263.787 273.966 263.886Z" fill="#37474F"/>
<path d="M275.87 265.722C275.869 265.782 275.856 265.841 275.831 265.895C275.806 265.95 275.77 265.998 275.725 266.038C275.314 266.417 274.999 266.887 274.804 267.411C274.61 267.935 274.542 268.498 274.606 269.053C274.621 269.165 274.591 269.278 274.522 269.368C274.453 269.457 274.351 269.516 274.239 269.531C274.184 269.539 274.127 269.536 274.072 269.522C274.018 269.508 273.967 269.483 273.922 269.449C273.877 269.415 273.84 269.372 273.812 269.323C273.785 269.274 273.767 269.22 273.761 269.164C273.678 268.472 273.761 267.77 274.003 267.117C274.245 266.463 274.639 265.877 275.153 265.406C275.193 265.366 275.24 265.334 275.292 265.313C275.344 265.291 275.4 265.28 275.456 265.28C275.513 265.28 275.568 265.291 275.62 265.313C275.672 265.334 275.72 265.366 275.759 265.406C275.834 265.494 275.873 265.607 275.87 265.722Z" fill="#37474F"/>
<path d="M221.018 218.675C220.377 227.745 222.803 238.317 223.58 241.443L222.239 244.654C221.906 252.895 234.05 257.396 239.618 254.185C248.346 240.23 252.77 232.664 251.053 223.885L221.018 218.675Z" fill="#263238"/>
<path opacity="0.3" d="M224.306 240.042L229.678 229.35C225.186 228.009 221.761 222.655 221.761 222.655C222.453 227.207 226.791 230.093 226.791 230.093C224.884 233.043 224.01 236.542 224.306 240.042Z" fill="black"/>
<path d="M239.806 251.144C238.662 246.02 230.882 240.444 224.246 242.229L218.046 255.935C217.003 258.244 216.373 260.719 216.184 263.246L213.716 296.338C213.548 298.654 213.129 300.944 212.469 303.17L212.393 303.426L221.018 305.732C221.052 301.909 221.769 298.123 223.136 294.553L229.729 277.354C231.006 274.005 231.587 270.43 231.437 266.849L231.334 264.142L239.806 251.144Z" fill="#FFA8A7"/>
<path d="M207.542 320.25C210.013 320.172 212.357 319.134 214.075 317.355C215.33 316.04 216.167 314.383 217.491 313.145C219.037 311.693 220.745 311.095 222.487 309.865C222.782 309.649 223.01 309.352 223.144 309.011C223.157 308.886 223.157 308.761 223.144 308.636C223.111 308.201 222.992 307.777 222.794 307.389C222.712 307.887 222.436 308.333 222.026 308.627C220.318 309.865 218.277 310.736 216.765 312.188C215.467 313.427 214.647 315.092 213.426 316.398C211.764 318.172 209.467 319.213 207.038 319.294C204.647 319.362 200.496 318.491 200.496 316.732C200.362 317.284 200.451 317.867 200.744 318.354C202.23 319.84 205.748 320.25 207.542 320.25Z" fill="#EBEBEB"/>
<path d="M222.487 309.831C220.779 311.061 219.071 311.659 217.491 313.111C216.167 314.349 215.33 316.006 214.075 317.321C212.357 319.1 210.013 320.138 207.542 320.216C205.748 320.267 202.256 319.84 200.761 318.38C201.88 320.241 205.842 320.754 207.764 320.694C210.192 320.617 212.489 319.578 214.152 317.808C215.373 316.492 216.193 314.836 217.491 313.589C219.003 312.146 220.668 311.548 222.376 310.309C222.588 310.157 222.765 309.962 222.898 309.737C223.03 309.512 223.114 309.262 223.144 309.003C223.006 309.335 222.779 309.621 222.487 309.831Z" fill="#455A64"/>
<path d="M222.077 303.93C221.889 303.51 221.821 303.046 221.881 302.589C221.881 302.589 222.009 301.231 222.094 300.796C222.256 299.942 221.599 299.899 221.599 299.899C221.599 299.899 221.471 300.574 221.36 301.368C221.176 301.485 221.017 301.638 220.893 301.817C220.768 301.995 220.68 302.197 220.634 302.41C220.55 302.838 220.421 303.256 220.249 303.657C220.16 303.856 220.013 304.024 219.827 304.14C219.642 304.255 219.426 304.313 219.208 304.306C218.738 304.237 218.447 303.759 218.055 303.452C217.82 303.309 217.552 303.228 217.278 303.216C217.003 303.204 216.73 303.261 216.483 303.383C216.604 303.111 216.625 302.805 216.542 302.52C216.459 302.234 216.278 301.986 216.031 301.821C215.515 301.496 214.93 301.3 214.323 301.248C213.916 301.165 213.499 301.136 213.084 301.163C212.878 301.177 212.676 301.233 212.492 301.328C212.308 301.424 212.147 301.557 212.017 301.718C211.888 301.881 211.818 302.083 211.818 302.29C211.818 302.498 211.888 302.7 212.017 302.863C210.232 303.956 209.557 308.952 206.201 311.454C202.845 313.956 200.462 314.511 200.462 316.723C200.462 318.431 204.613 319.285 207.004 319.285C209.433 319.204 211.73 318.163 213.392 316.39C214.613 315.083 215.433 313.418 216.731 312.18C218.242 310.728 220.284 309.857 221.992 308.619C222.254 308.42 222.464 308.161 222.604 307.864C222.744 307.566 222.809 307.239 222.794 306.911C222.735 305.882 222.492 304.873 222.077 303.93Z" fill="#467445"/>
<path d="M201.086 316.074L202.631 316.638C202.735 316.674 202.826 316.739 202.894 316.825C202.962 316.912 203.004 317.015 203.016 317.124C203.212 318.832 203.468 319.37 204.254 320.105C203.298 320.003 202.375 319.697 201.547 319.208C201.048 318.919 200.68 318.449 200.521 317.894C200.361 317.34 200.423 316.746 200.693 316.236C200.728 316.166 200.787 316.112 200.859 316.082C200.931 316.052 201.012 316.049 201.086 316.074Z" fill="#455A64"/>
<path d="M215.476 305.271C215.413 305.271 215.352 305.257 215.296 305.231C215.24 305.204 215.19 305.165 215.151 305.117C214.66 304.553 213.996 304.166 213.264 304.015C212.528 303.869 211.764 303.974 211.095 304.314C210.993 304.365 210.875 304.374 210.766 304.338C210.658 304.302 210.569 304.224 210.518 304.122C210.467 304.02 210.459 303.902 210.495 303.794C210.531 303.686 210.608 303.597 210.71 303.546C211.554 303.115 212.519 302.981 213.448 303.165C214.378 303.35 215.218 303.842 215.834 304.562C215.907 304.647 215.943 304.758 215.935 304.87C215.927 304.982 215.876 305.086 215.792 305.16C215.749 305.199 215.699 305.229 215.645 305.248C215.591 305.267 215.533 305.275 215.476 305.271Z" fill="#37474F"/>
<path d="M214.263 307.884C214.147 307.884 214.037 307.838 213.955 307.756C213.421 307.217 212.757 306.824 212.027 306.616C211.297 306.408 210.526 306.392 209.788 306.569C209.733 306.583 209.676 306.586 209.62 306.577C209.564 306.569 209.51 306.55 209.461 306.52C209.413 306.491 209.371 306.452 209.337 306.406C209.304 306.36 209.28 306.308 209.267 306.253C209.253 306.199 209.25 306.143 209.258 306.088C209.266 306.033 209.284 305.98 209.313 305.932C209.342 305.884 209.38 305.843 209.424 305.81C209.469 305.777 209.52 305.754 209.574 305.741C210.459 305.529 211.383 305.548 212.258 305.796C213.133 306.044 213.929 306.513 214.57 307.158C214.629 307.218 214.669 307.295 214.685 307.378C214.701 307.46 214.691 307.546 214.659 307.624C214.626 307.701 214.571 307.767 214.5 307.814C214.43 307.86 214.347 307.885 214.263 307.884Z" fill="#37474F"/>
<path d="M212.401 310.164C212.336 310.163 212.272 310.149 212.213 310.121C212.154 310.093 212.101 310.052 212.06 310.002C211.665 309.518 211.151 309.145 210.569 308.92C209.986 308.696 209.355 308.627 208.737 308.721C208.624 308.739 208.508 308.712 208.416 308.644C208.323 308.577 208.26 308.476 208.242 308.362C208.224 308.249 208.252 308.133 208.319 308.04C208.386 307.947 208.488 307.885 208.601 307.867C209.369 307.746 210.155 307.829 210.88 308.108C211.606 308.387 212.245 308.852 212.734 309.455C212.786 309.518 212.82 309.594 212.83 309.675C212.84 309.756 212.827 309.838 212.792 309.912C212.757 309.986 212.701 310.048 212.632 310.091C212.563 310.134 212.483 310.157 212.401 310.156V310.164Z" fill="#37474F"/>
<path d="M210.539 312.103C210.479 312.103 210.42 312.091 210.365 312.065C210.311 312.04 210.262 312.004 210.223 311.958C209.842 311.548 209.37 311.234 208.845 311.041C208.319 310.848 207.756 310.782 207.2 310.847C207.088 310.857 206.976 310.824 206.887 310.754C206.798 310.685 206.739 310.583 206.722 310.472C206.715 310.416 206.719 310.359 206.734 310.304C206.749 310.249 206.775 310.198 206.81 310.154C206.845 310.109 206.888 310.072 206.938 310.045C206.987 310.017 207.042 310 207.098 309.993C207.79 309.911 208.491 309.995 209.144 310.237C209.798 310.479 210.384 310.872 210.855 311.385C210.908 311.448 210.943 311.524 210.955 311.605C210.966 311.686 210.955 311.768 210.922 311.843C210.889 311.918 210.836 311.982 210.768 312.028C210.7 312.074 210.621 312.1 210.539 312.103Z" fill="#37474F"/>
<path d="M243.649 176.889C238.975 176.522 234.28 176.488 229.601 176.787C227.5 176.818 225.432 177.314 223.546 178.238C222.344 179.005 221.308 180.004 220.498 181.178C219.689 182.351 219.122 183.675 218.832 185.07C218.275 187.86 218.097 190.713 218.302 193.551C218.55 202.825 219.242 210.742 220.241 219.965C229.456 225.285 241.591 227.805 251.839 224.884C251.984 212.928 251.395 200.28 248.987 188.563C248.133 184.327 246.894 179.75 243.649 176.889Z" fill="#455A64"/>
<path opacity="0.3" d="M243.649 176.889C238.975 176.522 234.28 176.488 229.601 176.787C227.5 176.818 225.432 177.314 223.546 178.238C222.344 179.005 221.308 180.004 220.498 181.178C219.689 182.351 219.122 183.675 218.832 185.07C218.275 187.86 218.097 190.713 218.302 193.551C218.55 202.825 219.242 210.742 220.241 219.965C229.456 225.285 241.591 227.805 251.839 224.884C251.984 212.928 251.395 200.28 248.987 188.563C248.133 184.327 246.894 179.75 243.649 176.889Z" fill="white"/>
<path d="M271.498 200.69C271.615 199.427 271.417 198.154 270.922 196.986C270.427 195.818 269.651 194.79 268.663 193.995L251.668 180.271C249.366 178.406 246.589 177.223 243.649 176.855L241.984 176.727C240.464 178.136 239.797 188.17 246.647 192.244L261.421 200.869L261.276 219.854L256.22 225.627C256.129 225.727 256.062 225.848 256.027 225.979C255.992 226.11 255.988 226.248 256.016 226.38C256.045 226.513 256.104 226.637 256.19 226.742C256.276 226.847 256.386 226.93 256.51 226.985C256.801 227.121 257.124 227.172 257.443 227.133C257.762 227.094 258.063 226.965 258.312 226.763L259.952 225.422C258.936 227.335 258.047 229.513 257.031 231.4C256.778 231.771 256.652 232.215 256.673 232.664C256.707 232.853 256.783 233.033 256.895 233.19C257.007 233.346 257.153 233.476 257.322 233.569C257.655 233.759 258.024 233.875 258.406 233.911C259.741 234.067 261.093 233.827 262.292 233.219C263.487 232.612 264.543 231.763 265.392 230.725C267.015 228.771 267.988 226.359 268.176 223.825C269.702 216.179 270.811 208.456 271.498 200.69Z" fill="#FFA8A7"/>
<path d="M226.543 173.26V174.797C226.504 175.923 226.297 177.037 225.928 178.102C225.774 178.55 225.774 179.037 225.928 179.485C226.087 179.862 226.328 180.198 226.634 180.469C226.94 180.739 227.303 180.937 227.696 181.048C228.477 181.257 229.295 181.284 230.087 181.125C232.457 180.721 234.61 179.497 236.168 177.666L235.818 167.153L226.543 173.26Z" fill="#FFA8A7"/>
<path opacity="0.2" d="M233.956 171.722C234.708 170.408 235.19 168.956 235.374 167.452L226.543 173.251V174.788C226.535 175.238 226.492 175.686 226.415 176.129C227.66 175.913 228.874 175.543 230.028 175.027C231.632 174.332 232.997 173.184 233.956 171.722Z" fill="black"/>
<path d="M216.748 156.205C215.739 156.238 214.741 155.993 213.861 155.498C212.982 155.002 212.255 154.275 211.761 153.396C211.691 153.266 211.66 153.12 211.672 152.973C211.685 152.827 211.74 152.688 211.831 152.572C211.922 152.457 212.044 152.371 212.184 152.324C212.323 152.278 212.473 152.273 212.615 152.311C213.312 152.435 214.026 152.435 214.724 152.311C213.919 151.264 213.331 150.066 212.994 148.789C212.657 147.512 212.577 146.181 212.76 144.873C212.782 144.727 212.839 144.589 212.924 144.469C213.01 144.35 213.123 144.252 213.253 144.184C213.384 144.116 213.528 144.079 213.676 144.077C213.823 144.075 213.968 144.108 214.101 144.172C216.996 145.608 220.218 146.259 223.443 146.06C225.151 145.94 226.859 145.573 228.567 145.445C230.286 145.232 232.029 145.498 233.606 146.213C234.398 146.577 235.076 147.151 235.567 147.871C236.058 148.592 236.342 149.433 236.39 150.304C236.586 150.025 236.84 149.792 237.135 149.621C237.43 149.45 237.759 149.345 238.098 149.313C238.452 149.271 238.812 149.301 239.154 149.402C239.496 149.503 239.814 149.674 240.088 149.903L237.133 151.542C237.687 151.432 238.262 151.507 238.769 151.758C239.275 152.008 239.685 152.419 239.934 152.926C240.368 153.92 240.556 155.004 240.481 156.086C240.536 157.512 240.474 158.94 240.293 160.356C240.099 161.787 239.537 163.144 238.662 164.293C237.892 165.232 236.865 165.926 235.707 166.291C234.129 166.732 232.454 166.678 230.907 166.137C229.372 165.602 227.911 164.873 226.56 163.968C223.059 161.687 219.774 159.088 216.748 156.205Z" fill="#263238"/>
<path d="M216.56 153.344C215.571 159.288 216.226 165.39 218.456 170.988C218.862 172.33 219.707 173.497 220.856 174.301C222.12 175.027 223.691 174.874 225.126 174.66C227.466 174.396 229.747 173.753 231.881 172.756C234.032 171.742 235.709 169.937 236.561 167.717C237.325 167.873 238.118 167.804 238.844 167.519C239.569 167.234 240.197 166.745 240.651 166.112C241.552 164.796 242.018 163.231 241.984 161.637C241.984 160.629 241.796 159.433 240.891 158.989C240.446 158.853 239.972 158.841 239.521 158.954C239.069 159.067 238.657 159.3 238.329 159.63C237.113 160.607 236.22 161.929 235.767 163.421C235.1 160.953 234.059 158.571 233.392 156.111C233.242 155.111 232.732 154.2 231.958 153.549C230.924 152.883 229.575 153.267 228.379 153.549C224.487 154.49 220.418 154.419 216.56 153.344Z" fill="#FFA8A7"/>
<path d="M223.742 160.825L220.864 165.685L224.297 166.325L223.742 160.825Z" fill="#F28F8F"/>
<path d="M227.611 167.999L224.998 169.271C225.222 169.568 225.536 169.784 225.894 169.885C226.251 169.987 226.632 169.969 226.979 169.835C227.281 169.65 227.509 169.365 227.624 169.03C227.739 168.695 227.735 168.331 227.611 167.999Z" fill="#F28F8F"/>
<path opacity="0.3" d="M227.611 167.999L224.998 169.271C225.222 169.568 225.536 169.784 225.894 169.885C226.251 169.987 226.632 169.969 226.979 169.835C227.281 169.65 227.509 169.365 227.624 169.03C227.739 168.695 227.735 168.331 227.611 167.999Z" fill="black"/>
<path d="M226.074 169.946C226.377 170.005 226.692 169.976 226.979 169.861C227.218 169.726 227.412 169.524 227.537 169.279C227.662 169.034 227.711 168.758 227.679 168.486C227.306 168.482 226.944 168.609 226.654 168.844C226.489 168.98 226.353 169.148 226.254 169.337C226.154 169.526 226.093 169.733 226.074 169.946Z" fill="#F28F8F"/>
<path d="M228.704 161.022C228.73 161.218 228.698 161.417 228.61 161.594C228.522 161.771 228.383 161.917 228.212 162.015C228.04 162.113 227.843 162.157 227.646 162.142C227.449 162.126 227.261 162.053 227.106 161.93C226.952 161.807 226.837 161.641 226.778 161.452C226.718 161.264 226.716 161.062 226.772 160.873C226.828 160.683 226.94 160.515 227.092 160.389C227.245 160.264 227.431 160.187 227.628 160.168C227.884 160.139 228.141 160.213 228.342 160.373C228.544 160.533 228.674 160.766 228.704 161.022Z" fill="#263238"/>
<path d="M220.446 161.534C220.471 161.669 220.468 161.808 220.437 161.941C220.406 162.075 220.347 162.201 220.265 162.311C220.183 162.42 220.079 162.512 219.959 162.58C219.84 162.647 219.707 162.689 219.571 162.703C219.434 162.716 219.296 162.701 219.166 162.659C219.035 162.616 218.915 162.547 218.813 162.456C218.71 162.365 218.628 162.253 218.571 162.128C218.514 162.003 218.484 161.868 218.482 161.731C218.478 161.483 218.568 161.242 218.733 161.057C218.898 160.872 219.127 160.756 219.374 160.731C219.62 160.706 219.867 160.775 220.066 160.924C220.265 161.073 220.4 161.29 220.446 161.534Z" fill="#263238"/>
<path d="M219.096 157.725L217.064 159.433C216.943 159.172 216.904 158.88 216.953 158.596C217.002 158.313 217.136 158.051 217.337 157.845C217.589 157.661 217.888 157.553 218.2 157.532C218.511 157.51 218.822 157.578 219.096 157.725Z" fill="#263238"/>
<path d="M227.491 156.752L229.823 158.041C229.891 157.763 229.871 157.47 229.767 157.203C229.664 156.935 229.48 156.706 229.242 156.547C228.959 156.419 228.647 156.37 228.338 156.406C228.03 156.442 227.737 156.562 227.491 156.752Z" fill="#263238"/>
<path d="M228.14 214.422C228.14 214.183 228.14 213.953 228.081 213.722C227.794 211.752 226.944 209.907 225.633 208.409C224.323 206.911 222.607 205.823 220.693 205.276L207.986 197.59L199.446 193.32L195.927 196.095C195.136 196.711 194.542 197.545 194.219 198.495C193.806 199.763 193.902 201.142 194.489 202.34C195.076 203.537 196.107 204.459 197.362 204.909L217.858 212.134C219.198 213.535 220.049 215.333 220.284 217.258C220.338 217.823 220.449 218.381 220.617 218.923C220.904 219.567 221.392 220.1 222.008 220.444C222.623 220.787 223.334 220.922 224.033 220.827C224.724 220.722 225.382 220.456 225.953 220.051C226.524 219.646 226.992 219.114 227.321 218.496C227.98 217.245 228.264 215.831 228.14 214.422Z" fill="#FFA8A7"/>
<path d="M221.291 205.276V204.038H220.386V204.49L218.456 203.363C218.255 203.246 218.027 203.184 217.794 203.184C217.562 203.184 217.333 203.246 217.132 203.363L213.913 205.225V204.687L213.059 204.764V205.985C213.059 206.061 213.08 206.137 213.119 206.202C213.158 206.268 213.214 206.323 213.281 206.361L215.928 207.898C216.13 208.011 216.358 208.071 216.59 208.071C216.822 208.071 217.05 208.011 217.252 207.898L221.138 205.652C221.201 205.616 221.255 205.564 221.292 205.501C221.33 205.438 221.35 205.366 221.351 205.293L221.291 205.276Z" fill="#467445"/>
<path d="M217.098 202.347L213.81 204.251C213.751 204.282 213.702 204.329 213.667 204.386C213.633 204.444 213.615 204.509 213.615 204.576C213.615 204.642 213.633 204.708 213.667 204.765C213.702 204.822 213.751 204.869 213.81 204.9L216.065 206.198C216.236 206.299 216.43 206.352 216.628 206.352C216.827 206.352 217.021 206.299 217.192 206.198L220.489 204.294C220.545 204.261 220.592 204.213 220.625 204.156C220.658 204.1 220.675 204.035 220.675 203.969C220.675 203.904 220.658 203.839 220.625 203.782C220.592 203.725 220.545 203.678 220.489 203.645L218.225 202.347C218.055 202.246 217.86 202.193 217.662 202.193C217.464 202.193 217.269 202.246 217.098 202.347Z" fill="#467445"/>
<path opacity="0.3" d="M221.291 205.276V204.038H220.386V204.49L218.456 203.363C218.255 203.246 218.027 203.184 217.794 203.184C217.562 203.184 217.333 203.246 217.132 203.363L213.913 205.225V204.687L213.059 204.764V205.985C213.059 206.061 213.08 206.137 213.119 206.202C213.158 206.268 213.214 206.323 213.281 206.361L215.928 207.898C216.13 208.011 216.358 208.071 216.59 208.071C216.822 208.071 217.05 208.011 217.252 207.898L221.138 205.652C221.201 205.616 221.255 205.564 221.292 205.501C221.33 205.438 221.35 205.366 221.351 205.293L221.291 205.276Z" fill="black"/>
<path d="M217.09 202.142L213.221 204.379C213.153 204.417 213.097 204.472 213.058 204.539C213.019 204.606 212.998 204.682 212.998 204.759C212.998 204.837 213.019 204.913 213.058 204.98C213.097 205.046 213.153 205.102 213.221 205.139L215.894 206.668C216.096 206.782 216.324 206.841 216.556 206.841C216.788 206.841 217.016 206.782 217.218 206.668L221.103 204.422C221.169 204.382 221.223 204.327 221.26 204.26C221.298 204.194 221.318 204.118 221.318 204.042C221.318 203.966 221.298 203.89 221.26 203.824C221.223 203.757 221.169 203.701 221.103 203.662L218.456 202.142C218.25 202.017 218.014 201.95 217.773 201.95C217.532 201.95 217.295 202.017 217.09 202.142Z" fill="#467445"/>
<path opacity="0.5" d="M217.098 202.347L213.81 204.251C213.751 204.282 213.702 204.329 213.667 204.386C213.633 204.444 213.615 204.509 213.615 204.576C213.615 204.642 213.633 204.708 213.667 204.765C213.702 204.822 213.751 204.869 213.81 204.9L216.065 206.198C216.236 206.299 216.43 206.352 216.628 206.352C216.827 206.352 217.021 206.299 217.192 206.198L220.489 204.294C220.545 204.261 220.592 204.213 220.625 204.156C220.658 204.1 220.675 204.035 220.675 203.969C220.675 203.904 220.658 203.839 220.625 203.782C220.592 203.725 220.545 203.678 220.489 203.645L218.225 202.347C218.055 202.246 217.86 202.193 217.662 202.193C217.464 202.193 217.269 202.246 217.098 202.347Z" fill="white"/>
<path d="M215.638 211.331C215.117 210.844 214.835 208.188 215.868 207.326L213.221 205.797C212.367 206.881 212.58 209.213 213.059 210.391C213.115 210.526 213.2 210.647 213.307 210.746C213.415 210.845 213.543 210.919 213.682 210.964C214.195 211.134 215.057 211.433 215.39 211.544C215.492 211.581 215.601 211.595 215.709 211.584C215.816 211.574 215.92 211.54 216.014 211.485L215.638 211.331Z" fill="#455A64"/>
</svg>
